# xmcd
#
# Track frame offsets:
#       150
#       9316
#       23394
#       37897
#       44189
#       49429
#       63180
#       77196
#       92619
#       109963
#       126883
#       131876
#       146527
#       159422
#       173359
#       191622
#       209782
#       223277
#       238887
#       258267
#       262017
#       277556
#       289663
#
# Disc length: 4229 seconds
#
# Revision: 0
# Processed by: cddbd v1.5.1PL2 Copyright (c) Steve Scherf et al.
# Submitted via: WaveLab 4.01
#
DISCID=52108317
DTITLE=Black Mosart - 4 Da Streets Vol II
DYEAR=2006
DGENRE=Hip Hop
TTITLE0=Intro
TTITLE1=Sugarcane and U-Niq/Ghetto News
TTITLE2=Neo Rah and Alpha/Body Bounce
TTITLE3=CarlitoGunz/What's up Hood
TTITLE4=Q.F./Rennen
TTITLE5=Cinnamon/The way it is
TTITLE6=Opgezwolle/Klaar om te gaan
TTITLE7=Tony Hawkinz/I'm a Rider
TTITLE8=Phantom and Rex/What up
TTITLE9=Klaas/Wie is de Baas
TTITLE10=Kiddocee/Geurloos
TTITLE11=De Keizerin/Dame van Nu
TTITLE12=Terendce ft Shockwave/Testimony
TTITLE13=Pimpaclawz/Ring a Few Bells
TTITLE14=Merage/The Streets of...
TTITLE15=Rick D and Complex/B Easy (Remix)
TTITLE16=Alpha and Neo Rah/The Realest
TTITLE17=Loyd/In This Life
TTITLE18=Shockwave/In This Game
TTITLE19=Rollarocka aka Shyrock/Can U Feel it
TTITLE20=Alpha and Neo/That Feeling
TTITLE21=Heron/No More Me
TTITLE22=Mangboy Vurro/O.G. P.I.M.P.
EXTD=
EXTT0=
EXTT1=
EXTT2=
EXTT3=
EXTT4=
EXTT5=
EXTT6=
EXTT7=
EXTT8=
EXTT9=
EXTT10=
EXTT11=
EXTT12=
EXTT13=
EXTT14=
EXTT15=
EXTT16=
EXTT17=
EXTT18=
EXTT19=
EXTT20=
EXTT21=
EXTT22=
PLAYORDER=
